<svg width="437" height="125" fill="none" xmlns="http://www.w3.org/2000/svg"><g id="logoNormal">
  <path id="text" d="M109.11 101.03c0-5.46 1.237-9.94 3.71-13.44 2.52-3.547 5.833-6.16 9.94-7.84 4.153-1.68 8.68-2.52 13.58-2.52 1.633 0 3.477.047 5.53.14 2.053.047 4.107.187 6.16.42v-3.92c0-7.047-3.407-10.57-10.22-10.57-3.267 0-6.72.513-10.36 1.54-3.64.98-7.303 2.1-10.99 3.36-1.353-1.493-2.45-3.453-3.29-5.88-.793-2.473-1.283-4.853-1.47-7.14 2.893-1.167 6.113-2.217 9.66-3.15 3.593-.98 7.21-1.75 10.85-2.31 3.64-.56 7.023-.84 10.15-.84 4.293 0 8.26.817 11.9 2.45 3.64 1.587 6.533 4.13 8.68 7.63 2.193 3.453 3.29 8.003 3.29 13.65v28.56c0 2.333.28 4.387.84 6.16.607 1.727 1.633 3.173 3.08 4.34-.373 1.633-1.167 3.383-2.38 5.25-1.167 1.867-2.38 3.243-3.64 4.13-3.267-.28-5.997-1.167-8.19-2.66-2.147-1.493-3.827-3.267-5.04-5.32-2.52 2.333-5.483 4.41-8.89 6.23-3.407 1.773-7.373 2.66-11.9 2.66-4.76 0-8.703-1.05-11.83-3.15-3.08-2.1-5.39-4.76-6.93-7.98-1.493-3.22-2.24-6.487-2.24-9.8zm17.92-1.26c0 2.38.7 4.363 2.1 5.95 1.4 1.587 3.337 2.38 5.81 2.38 4.573 0 8.937-2.053 13.09-6.16V89.69a48.813 48.813 0 00-5.25-.28 182.68 182.68 0 00-4.76-.07c-3.64 0-6.393.957-8.26 2.87-1.82 1.867-2.73 4.387-2.73 7.56zm51.837 15.26c.094-2.007.654-4.223 1.68-6.65 1.074-2.473 2.334-4.433 3.78-5.88a73.046 73.046 0 009.52 4.27c3.314 1.167 6.65 1.75 10.01 1.75 3.22 0 5.717-.63 7.49-1.89 1.82-1.26 2.73-2.87 2.73-4.83 0-3.453-2.496-6.09-7.49-7.91l-7.91-2.87c-4.9-1.82-9.076-4.317-12.53-7.49-3.453-3.22-5.18-7.56-5.18-13.02 0-6.767 2.404-12.11 7.21-16.03 4.854-3.967 11.107-5.95 18.76-5.95 4.154 0 8.517.56 13.09 1.68 4.574 1.073 8.354 2.333 11.34 3.78.047 2.193-.443 4.62-1.47 7.28-.98 2.613-2.216 4.527-3.71 5.74-2.706-1.213-5.74-2.333-9.1-3.36-3.313-1.073-6.65-1.61-10.01-1.61-2.473 0-4.41.607-5.81 1.82-1.4 1.167-2.1 2.637-2.1 4.41 0 2.893 2.334 5.18 7 6.86l8.61 3.15c5.274 1.913 9.637 4.62 13.09 8.12 3.454 3.453 5.18 8.003 5.18 13.65 0 6.767-2.613 12.11-7.84 16.03-5.18 3.92-12.203 5.88-21.07 5.88-4.993 0-9.66-.677-14-2.03-4.34-1.4-8.096-3.033-11.27-4.9zm85.67 4.97c-2.566.467-5.576.7-9.03.7-3.22 0-6.183-.233-8.89-.7V17.94l.91-.91h7.07c3.687 0 6.254.863 7.7 2.59 1.494 1.68 2.24 4.573 2.24 8.68v29.4a39.802 39.802 0 019.31-6.02c3.407-1.587 7.094-2.38 11.06-2.38 6.44 0 11.224 2.287 14.35 6.86 3.127 4.527 4.69 10.22 4.69 17.08v30.52c0 2.613.21 5.063.63 7.35.467 2.287 1.237 4.293 2.31 6.02-1.353 1.12-3.033 2.053-5.04 2.8-2.006.747-4.13 1.12-6.37 1.12-3.64 0-6.183-.98-7.63-2.94-1.446-1.96-2.17-4.807-2.17-8.54V77.02c0-3.873-.513-6.72-1.54-8.54-.98-1.82-2.916-2.73-5.81-2.73-2.006 0-4.27.56-6.79 1.68-2.52 1.073-4.853 2.707-7 4.9V120zm110.733-5.95c-3.454 2.427-7.584 4.363-12.39 5.81a51.1 51.1 0 01-14.49 2.1c-5.834 0-10.71-1.003-14.63-3.01-3.874-2.007-6.954-4.713-9.24-8.12-2.24-3.453-3.827-7.35-4.76-11.69-.934-4.387-1.4-8.913-1.4-13.58 0-7 1.073-13.277 3.22-18.83 2.146-5.6 5.436-10.033 9.87-13.3 4.48-3.267 10.22-4.9 17.22-4.9 6.066 0 11.223 1.33 15.47 3.99 4.246 2.613 7.466 6.183 9.66 10.71 2.24 4.48 3.36 9.497 3.36 15.05 0 2.707-.117 4.993-.35 6.86-.234 1.82-.607 3.803-1.12 5.95h-38.71c.326 4.713 1.47 8.657 3.43 11.83 1.96 3.127 5.6 4.69 10.92 4.69 3.313 0 6.533-.443 9.66-1.33a64.239 64.239 0 009.1-3.43c1.4 1.4 2.543 3.173 3.43 5.32.886 2.1 1.47 4.06 1.75 5.88zm-26.74-52.29c-3.687 0-6.464 1.423-8.33 4.27-1.867 2.8-2.94 6.883-3.22 12.25h23.03V76.6c0-4.06-.887-7.537-2.66-10.43-1.727-2.94-4.667-4.41-8.82-4.41zm39.906-2.8c.374-1.633 1.144-3.407 2.31-5.32 1.214-1.913 2.45-3.313 3.71-4.2 3.92.513 7.14 1.867 9.66 4.06 2.567 2.147 4.504 4.97 5.81 8.47 1.587-3.593 3.804-6.557 6.65-8.89 2.847-2.38 6.58-3.57 11.2-3.57 1.68 0 3.15.093 4.41.28 1.26.187 2.59.42 3.99.7 0 2.287-.373 5.087-1.12 8.4-.746 3.313-1.89 6.253-3.43 8.82a13.267 13.267 0 00-3.22-.7 75.156 75.156 0 00-3.22-.35c-3.126 0-5.74.817-7.84 2.45-2.1 1.587-3.896 3.663-5.39 6.23V120c-1.26.233-2.706.397-4.34.49-1.586.14-3.173.21-4.76.21-1.586 0-3.196-.07-4.83-.21a37.269 37.269 0 01-4.34-.49V73.45c0-3.92-.583-7.07-1.75-9.45-1.166-2.427-2.333-4.107-3.5-5.04z" fill="#0D0B0B"/>
  <g id="icon"><path fill-rule="evenodd" clip-rule="evenodd" d="M99.03 49.394c.524.585.926 1.034 1.13 1.244 2.513 3.338 3.84 7.436 3.84 11.835 0 3.941-1.175 7.883-3.546 11.065-1.52 2.216-5.015 5.762-5.015 5.762-12.411 13.8-43.292 34.57-58.945 41.246 0 .146-9.311 4.098-13.739 4.254h-.587c-6.798 0-13.15-3.952-16.403-10.317-1.327-2.607-2.569-8.959-3.173-12.052-.204-1.04-.335-1.712-.373-1.749C.892 91.592 0 77.636 0 62.317c0-16.079.892-30.628 2.513-39.583 0-.145 1.62-8.33 2.664-11.065 1.621-3.942 4.58-7.28 8.267-9.402C16.403.75 19.504 0 22.755 0c3.394.146 9.747 2.413 12.26 3.484C51.558 10.15 83.17 31.99 95.286 45.334c1.348 1.383 2.76 2.962 3.743 4.06zM44.5 80C54.717 80 63 71.717 63 61.5S54.717 43 44.5 43 26 51.283 26 61.5 34.283 80 44.5 80z" fill="#EF0390"/></g></g>
</svg>